<svg width="529" height="160" viewBox="0 0 529 160" fill="none" xmlns="http://www.w3.org/2000/svg">
<ellipse cx="127" cy="94.5" rx="59.5" ry="28.5" fill="#8D663E"/>
<rect x="105.673" y="87.4779" width="160" height="27" transform="rotate(-4.61308 105.673 87.4779)" fill="#8D663E"/>
<path d="M331.969 16.3314C333.661 12.2377 339.447 12.2028 341.188 16.2758L382.759 113.529C384.164 116.816 381.766 120.473 378.191 120.495L296.226 120.989C292.651 121.01 290.209 117.383 291.574 114.079L331.969 16.3314Z" fill="#58371F"/>
<rect x="375.5" y="129" width="78" height="3" fill="#E5B730"/>
<ellipse cx="301" cy="107.5" rx="99.5" ry="47.5" fill="#8D663E"/>
<path d="M292.358 11.4893C294.116 7.42359 299.902 7.48255 301.576 11.5832L341.564 109.498C342.915 112.808 340.459 116.425 336.884 116.389L254.921 115.553C251.347 115.517 248.964 111.85 250.383 108.569L292.358 11.4893Z" fill="#6C4A31"/>
<path d="M88.0738 114.057C89.5738 114.057 88.0738 88.5572 88.0738 87.0572C88.0738 85.5572 -1.42623 114.057 1.57377 114.057H88.0738Z" stroke="#FFCF3E" stroke-width="3" stroke-linecap="round"/>
<path d="M31.8666 108.838C31.8288 108.838 30.8874 108.86 28.6456 109C25.6239 109.188 22.7362 109.555 20.7234 109.63C18.636 109.707 17.9219 110.147 17.0879 110.305C16.3286 110.448 15.4906 110.684 13.8533 111.554C13.2636 111.867 12.6177 111.915 12.0995 111.875C11.957 111.864 12.0967 111.707 14.1055 111.539C16.1142 111.37 19.9974 111.153 22.1501 111.058C24.6058 110.95 26.5629 111.132 29.2135 111.209C30.2223 111.239 30.5492 111.05 30.6973 110.9C30.8454 110.749 30.8051 110.593 30.6338 110.351C29.7701 109.128 29.0758 108.37 28.8179 107.59C28.7368 107.346 28.7886 107.002 28.8576 106.78C28.9267 106.559 29.065 106.459 29.2311 106.394C29.5731 106.262 30.061 106.278 30.5832 106.312C31.0361 106.341 31.347 106.596 31.5587 106.849C31.668 106.98 31.7242 107.158 31.7218 107.326C31.712 108.012 30.9028 108.435 30.789 109.348C30.6918 110.126 31.3567 111.08 31.9349 111.59C32.0502 111.691 32.2474 111.559 32.4091 111.41C33.4283 110.474 33.8933 108.189 34.0808 106.815C34.1555 106.269 34.2154 105.84 34.3717 105.582C34.7598 104.94 35.8939 105.461 36.2691 105.64C36.4398 105.722 36.5106 105.888 36.5555 106.048C36.7476 106.734 35.463 108.399 34.7933 109.613C34.6122 109.942 34.6815 110.476 34.7579 110.979C34.7885 111.181 34.9872 111.222 35.1463 111.257C35.3054 111.293 35.4662 111.309 35.6276 111.267C36.3047 111.091 36.6971 109.851 37.307 108.091C37.8959 106.392 37.9643 105.101 38.3391 104.361C38.6879 103.672 39.7709 103.768 40.5204 103.808C40.818 103.824 40.9296 103.984 41.0059 104.143C41.1649 104.474 41.1388 105.051 41.069 105.686C40.9719 106.569 40.0353 107.033 39.4392 107.682C38.864 108.309 38.6727 109.165 38.7091 109.784C38.7411 110.327 39.0631 110.71 39.2794 111.003C39.3851 111.147 39.5342 111.237 39.6944 111.267C40.5123 111.423 41.3959 109.553 42.2629 107.305C43.1364 105.04 42.8567 103.454 43.2338 102.863C43.3257 102.718 43.548 102.703 43.727 102.793C45.0407 103.453 44.63 106.666 44.2953 107.764C43.906 109.042 41.3981 109.78 40.3211 110.491C40.1216 110.622 39.941 110.886 39.7984 111.08C39.6558 111.275 39.5848 111.428 41.6547 111.592C43.7247 111.756 47.9376 111.926 51.1646 112.151C54.3916 112.376 56.5049 112.649 59.6108 112.774C62.7166 112.899 66.7509 112.866 69.5982 112.717C72.4454 112.569 73.9833 112.305 75.3841 112.004C78.0168 111.438 79.8866 110.923 81.2872 110.761C84.0404 110.441 84.8393 111.115 85.5718 111.27C85.7469 111.307 85.9219 111.287 85.9179 111.332C85.8975 111.564 84.7627 111.68 83.1039 111.873C81.2621 112.088 79.6264 111.929 76.0264 111.049C73.0306 110.318 67.7571 108.639 64.5764 107.754C61.3956 106.87 60.4919 106.738 58.5842 106.648C56.6766 106.558 53.7925 106.514 51.6388 106.475C48.1492 106.411 46.25 106.453 45.2691 106.637C43.8196 106.91 41.6727 108.324 39.6817 109.955C39.158 110.384 38.7191 110.931 38.31 111.409C38.1682 111.575 38.3468 111.707 40.1749 111.295C42.0031 110.883 45.5231 109.954 48.1239 109.365C50.7246 108.776 52.2995 108.555 54.8004 108.454C57.3012 108.354 60.6804 108.381 63.1041 108.49C66.9019 108.661 68.465 108.993 68.6427 109.065C69.2509 109.31 65.265 109.9 61.3217 110.373C58.8142 110.673 56.7289 110.158 54.7563 109.57C53.9417 109.348 53.5059 109.285 53.022 109.252C52.538 109.219 52.0191 109.218 51.4844 109.218" stroke="#FFCF3E" stroke-width="4" stroke-linecap="round"/>
<path d="M84.5073 107.793C84.5313 107.09 84.7486 104.906 85.0245 103.712C85.3425 102.337 85.3655 108.162 85.8279 108.931C86.4516 109.968 86.9196 105.185 86.6333 104.203C86.5396 103.882 85.9701 104.042 85.6282 104.139C84.8499 104.359 84.8198 105.54 84.8003 106.119C84.7903 106.414 85.5785 103.895 86.2824 100.643C87.1155 96.7953 86.3944 95.9361 86.3274 95.1507C86.2595 93.8436 86.1448 91.9723 85.894 91.2416C85.8214 91.0654 85.7378 90.914 85.5143 90.613" stroke="#FFCF3E" stroke-width="4" stroke-linecap="round"/>
<path d="M85.5141 90.613C85.5015 90.613 83.9632 90.642 79.1662 91.1324C75.8856 91.4678 70.9489 92.4869 67.4376 93.3309C63.9263 94.1748 62.0059 94.9428 60.1281 95.9076C58.2503 96.8723 56.4733 98.0108 55.2481 98.5979C54.0229 99.1849 53.4034 99.1862 51.9957 99.5894C45.9969 101.77 45.5068 102.225 45.2321 102.559C45.1005 102.728 44.9848 102.894 44.7441 103.319" stroke="#FFCF3E" stroke-width="4" stroke-linecap="round"/>
<path d="M47.3345 103.545C47.3844 103.545 48.1567 103.53 50.5064 103.235C52.1211 103.033 54.5471 102.416 56.582 101.82C60.2269 100.753 62.0826 99.8756 62.7476 99.7565C64.3258 99.4737 66.2864 98.7043 69.2292 96.9239C71.3578 95.6361 73.0191 94.7741 73.8502 94.4821C74.6208 94.2114 77.7133 94.01 81.7928 93.7827C83.2013 93.7042 83.2753 94.0161 83.3477 94.2238C83.482 94.6093 83.6042 96.2388 83.433 99.8061C83.3311 101.929 82.756 104.653 82.4734 106.217C82.1907 107.781 82.1046 108.093 82.015 108.368C81.9255 108.644 81.835 108.873 81.7081 108.515C81.5812 108.157 81.4206 107.205 81.3418 105.249C81.2631 103.292 81.2711 100.359 81.2882 98.6138C81.3053 96.8685 81.3314 96.3993 81.2586 96.2386C81.1858 96.0779 81.0135 96.24 80.2565 98.5333C79.4995 100.827 78.1631 105.246 77.4165 107.581C76.6698 109.915 76.5533 110.031 76.4716 109.991C76.39 109.951 76.3467 109.752 76.3586 107.753C76.3704 105.755 76.4386 101.963 76.4032 100.073C76.3678 98.1835 76.2268 98.3105 76.1215 98.4968C75.5949 99.4285 75.7854 101.925 76.1784 103.587C77.7364 106 78.9216 107.506 79.1148 108.03C79.2045 108.423 79.2774 109.072 79.43 110.153" stroke="#FFCF3E" stroke-width="4" stroke-linecap="round"/>
<path d="M79.4303 110.194C78.8923 109.775 77.4431 108.832 75.565 107.991C74.3757 107.458 72.1635 106.644 70.6719 106.147C68.4932 105.421 66.2115 105.408 63.2958 105.295C58.5914 105.112 57.1706 104.104 56.8881 103.883C56.6007 103.658 56.5795 102.597 56.6053 101.296C56.6151 100.799 56.7707 100.643 57.055 100.439C58.9137 99.1054 61.9403 98.0423 64.001 97.2452C66.2786 96.3641 69.2005 96.3306 71.0095 96.3598C71.282 96.3642 69.3063 97.559 65.8706 99.6639C64.0272 100.793 62.1012 102.238 60.8492 103.095C59.1357 104.269 58.4099 104.676 58.0481 105.016C57.872 105.181 57.7469 105.368 60.5212 103.643C63.2954 101.918 68.9818 98.2857 72.1182 96.3281C76.3088 93.7125 77.6453 93.6822 78.3824 93.6717C78.5984 93.6686 78.4812 93.8278 76.6842 95.0096C74.8871 96.1914 71.4108 98.4313 69.4969 99.6857C66.4324 101.694 65.4298 103.12 65.3969 103.366C65.3645 103.607 67.7697 102.708 71.4603 101.137C74.6575 99.7762 76.2251 98.7727 76.5681 98.9236C77.9289 99.5221 74.8195 103.184 73.8917 104.3C73.4956 104.776 75.1511 101.726 76.5822 99.394C77.5007 97.8969 78.6746 96.8602 79.2907 96.3626C79.3087 96.348 79.0984 96.4264 77.7172 97.561C76.336 98.6956 73.7647 100.876 72.3711 102.084C70.9775 103.292 70.8395 103.461 70.6103 103.78" stroke="#FFCF3E" stroke-width="4" stroke-linecap="round"/>
<circle cx="121" cy="85.5" r="11.5" fill="white"/>
<circle cx="119" cy="84.5" r="9.5" fill="#292B39"/>
<ellipse cx="457.03" cy="89.8115" rx="70.5" ry="14" transform="rotate(-5.59887 457.03 89.8115)" fill="#58371F"/>
<ellipse cx="456.26" cy="105.644" rx="70.5" ry="14" transform="rotate(7.97352 456.26 105.644)" fill="#6C4A31"/>
<path d="M453.79 141.994C453.547 143.928 450.963 144.407 450.043 142.688L444.87 133.029C444.231 131.836 444.937 130.365 446.268 130.119L452.809 128.906C454.14 128.659 455.327 129.779 455.158 131.122L453.79 141.994Z" fill="#E5B730"/>
<rect x="367.5" y="124" width="78" height="3" rx="1.5" fill="#FFCF3E"/>
<path d="M445.79 136.994C445.547 138.928 442.963 139.407 442.043 137.688L436.87 128.029C436.231 126.836 436.937 125.365 438.268 125.119L444.809 123.906C446.14 123.659 447.327 124.779 447.158 126.122L445.79 136.994Z" fill="#FFCF3E"/>
<path d="M1.5 114.5C42.9992 112.403 63.3207 110.978 65 105.5" stroke="#E5B730" stroke-width="3" stroke-linecap="round"/>
</svg>
