<svg width="529" height="154" viewBox="0 0 529 154" fill="none" xmlns="http://www.w3.org/2000/svg">
<ellipse cx="127" cy="39.5" rx="59.5" ry="28.5" fill="#8D663E"/>
<rect x="105.673" y="32.4779" width="160" height="27" transform="rotate(-4.61308 105.673 32.4779)" fill="#8D663E"/>
<path d="M337.135 142.976C335.414 147.058 329.628 147.051 327.916 142.966L287.042 45.4178C285.661 42.1209 288.085 38.4815 291.659 38.4855L373.626 38.5772C377.201 38.5812 379.617 42.2261 378.228 45.5198L337.135 142.976Z" fill="#58371F"/>
<rect x="375.5" y="74" width="78" height="3" fill="#E5B730"/>
<ellipse cx="301" cy="52.5" rx="99.5" ry="47.5" fill="#8D663E"/>
<path d="M301.135 142.976C299.414 147.058 293.628 147.051 291.916 142.966L251.042 45.4178C249.661 42.1209 252.085 38.4815 255.659 38.4855L337.626 38.5772C341.201 38.5812 343.617 42.2261 342.228 45.5198L301.135 142.976Z" fill="#6C4A31"/>
<path d="M88.0738 59.0572C89.5738 59.0572 88.0738 33.5572 88.0738 32.0572C88.0738 30.5572 -1.42623 59.0572 1.57377 59.0572H88.0738Z" stroke="#FFCF3E" stroke-width="3" stroke-linecap="round"/>
<path d="M31.8666 53.8378C31.8288 53.8378 30.8874 53.86 28.6456 53.9999C25.6239 54.1883 22.7362 54.5555 20.7234 54.63C18.636 54.7073 17.9219 55.1468 17.0879 55.3045C16.3286 55.4482 15.4906 55.6844 13.8533 56.5539C13.2636 56.8671 12.6177 56.9155 12.0995 56.8751C11.957 56.8639 12.0967 56.7072 14.1055 56.5387C16.1142 56.3703 19.9974 56.1528 22.1501 56.0582C24.6058 55.9503 26.5629 56.1318 29.2135 56.2094C30.2223 56.239 30.5492 56.0499 30.6973 55.8997C30.8454 55.7495 30.8051 55.5931 30.6338 55.3506C29.7701 54.1283 29.0758 53.3698 28.8179 52.5904C28.7368 52.3455 28.7886 52.0016 28.8576 51.7802C28.9267 51.5589 29.065 51.4587 29.2311 51.3944C29.5731 51.2617 30.061 51.278 30.5832 51.312C31.0361 51.3415 31.347 51.596 31.5587 51.8492C31.668 51.9798 31.7242 52.1578 31.7218 52.3264C31.712 53.0123 30.9028 53.4355 30.789 54.3477C30.6918 55.1262 31.3567 56.0804 31.9349 56.5899C32.0502 56.6915 32.2474 56.5588 32.4091 56.4102C33.4283 55.4737 33.8933 53.1888 34.0808 51.8153C34.1555 51.2686 34.2154 50.8404 34.3717 50.582C34.7598 49.9404 35.8939 50.4609 36.2691 50.6404C36.4398 50.7221 36.5106 50.8879 36.5555 51.0485C36.7476 51.7341 35.463 53.3987 34.7933 54.6133C34.6122 54.9418 34.6815 55.4765 34.7579 55.9794C34.7885 56.1806 34.9872 56.2216 35.1463 56.2573C35.3054 56.2931 35.4662 56.3095 35.6276 56.2674C36.3047 56.0909 36.6971 54.8514 37.307 53.0913C37.8959 51.3916 37.9643 50.1013 38.3391 49.3608C38.6879 48.6716 39.7709 48.7683 40.5204 48.8081C40.818 48.8239 40.9296 48.9841 41.0059 49.143C41.1649 49.4742 41.1388 50.051 41.069 50.6861C40.9719 51.5688 40.0353 52.0333 39.4392 52.6825C38.864 53.3089 38.6727 54.165 38.7091 54.7835C38.7411 55.3274 39.0631 55.7104 39.2794 56.0034C39.3851 56.1466 39.5342 56.2367 39.6944 56.2672C40.5123 56.4229 41.3959 54.5532 42.2629 52.305C43.1364 50.0398 42.8567 48.4541 43.2338 47.8627C43.3257 47.7184 43.548 47.7026 43.727 47.7926C45.0407 48.4532 44.63 51.6659 44.2953 52.7645C43.906 54.0421 41.3981 54.7797 40.3211 55.4905C40.1216 55.6222 39.941 55.8855 39.7984 56.0801C39.6558 56.2747 39.5848 56.428 41.6547 56.5921C43.7247 56.7561 47.9376 56.9264 51.1646 57.151C54.3916 57.3755 56.5049 57.6493 59.6108 57.7739C62.7166 57.8986 66.7509 57.8658 69.5982 57.7172C72.4454 57.5686 73.9833 57.3052 75.3841 57.0039C78.0168 56.4377 79.8866 55.9233 81.2872 55.7607C84.0404 55.4412 84.8393 56.1155 85.5718 56.2698C85.7469 56.3067 85.9219 56.2869 85.9179 56.3322C85.8975 56.5636 84.7627 56.6801 83.1039 56.8732C81.2621 57.0875 79.6264 56.9289 76.0264 56.0494C73.0306 55.3175 67.7571 53.6385 64.5764 52.7544C61.3956 51.8703 60.4919 51.738 58.5842 51.6481C56.6766 51.5581 53.7925 51.5144 51.6388 51.475C48.1492 51.4112 46.25 51.4527 45.2691 51.6371C43.8196 51.9097 41.6727 53.3241 39.6817 54.955C39.158 55.3841 38.7191 55.931 38.31 56.4092C38.1682 56.5749 38.3468 56.7066 40.1749 56.2946C42.0031 55.8826 45.5231 54.9541 48.1239 54.3651C50.7246 53.7762 52.2995 53.5549 54.8004 53.4545C57.3012 53.354 60.6804 53.3811 63.1041 53.4903C66.9019 53.6613 68.465 53.9933 68.6427 54.0648C69.2509 54.3095 65.265 54.8997 61.3217 55.3726C58.8142 55.6733 56.7289 55.1581 54.7563 54.5695C53.9417 54.3484 53.5059 54.2846 53.022 54.2516C52.538 54.2186 52.0191 54.2184 51.4844 54.2182" stroke="#FFCF3E" stroke-width="4" stroke-linecap="round"/>
<path d="M84.5073 52.7925C84.5313 52.09 84.7486 49.9056 85.0245 48.7122C85.3425 47.3368 85.3655 53.1623 85.8279 53.931C86.4516 54.9677 86.9196 50.1846 86.6333 49.203C86.5396 48.8816 85.9701 49.0422 85.6282 49.139C84.8499 49.3595 84.8198 50.5396 84.8003 51.1185C84.7903 51.4139 85.5785 48.8946 86.2824 45.6432C87.1155 41.7953 86.3944 40.9361 86.3274 40.1507C86.2595 38.8436 86.1448 36.9723 85.894 36.2416C85.8214 36.0654 85.7378 35.914 85.5143 35.613" stroke="#FFCF3E" stroke-width="4" stroke-linecap="round"/>
<path d="M85.5141 35.613C85.5015 35.613 83.9632 35.642 79.1662 36.1324C75.8856 36.4678 70.9489 37.4869 67.4376 38.3309C63.9263 39.1748 62.0059 39.9428 60.1281 40.9076C58.2503 41.8723 56.4733 43.0108 55.2481 43.5979C54.0229 44.1849 53.4034 44.1862 51.9957 44.5894C45.9969 46.7696 45.5068 47.2249 45.2321 47.5592C45.1005 47.7276 44.9848 47.8937 44.7441 48.3192" stroke="#FFCF3E" stroke-width="4" stroke-linecap="round"/>
<path d="M47.3345 48.5451C47.3844 48.5451 48.1567 48.5295 50.5064 48.2354C52.1211 48.0333 54.5471 47.4156 56.582 46.82C60.2269 45.7533 62.0826 44.8756 62.7476 44.7565C64.3258 44.4737 66.2864 43.7043 69.2292 41.9239C71.3578 40.6361 73.0191 39.7741 73.8502 39.4821C74.6208 39.2114 77.7133 39.01 81.7928 38.7827C83.2013 38.7042 83.2753 39.0161 83.3477 39.2238C83.482 39.6093 83.6042 41.2388 83.433 44.8061C83.3311 46.9289 82.756 49.6533 82.4734 51.2171C82.1907 52.7809 82.1046 53.0931 82.015 53.3685C81.9255 53.6439 81.835 53.8731 81.7081 53.5152C81.5812 53.1573 81.4206 52.2053 81.3418 50.2486C81.2631 48.2918 81.2711 45.3592 81.2882 43.6138C81.3053 41.8685 81.3314 41.3993 81.2586 41.2386C81.1858 41.0779 81.0135 41.24 80.2565 43.5333C79.4995 45.8265 78.1631 50.2461 77.4165 52.5806C76.6698 54.9152 76.5533 55.0309 76.4716 54.9909C76.39 54.9508 76.3467 54.7516 76.3586 52.7532C76.3704 50.7547 76.4386 46.963 76.4032 45.0733C76.3678 43.1835 76.2268 43.3105 76.1215 43.4968C75.5949 44.4285 75.7854 46.9247 76.1784 48.5867C77.7364 50.9996 78.9216 52.5056 79.1148 53.0304C79.2045 53.423 79.2774 54.0718 79.43 55.1532" stroke="#FFCF3E" stroke-width="4" stroke-linecap="round"/>
<path d="M79.4303 55.1939C78.8923 54.7752 77.4431 53.8322 75.565 52.9905C74.3757 52.4575 72.1635 51.6438 70.6719 51.1467C68.4932 50.4207 66.2115 50.4084 63.2958 50.2949C58.5914 50.1116 57.1706 49.1039 56.8881 48.8827C56.6007 48.6577 56.5795 47.5967 56.6053 46.2956C56.6151 45.7989 56.7707 45.643 57.055 45.439C58.9137 44.1054 61.9403 43.0423 64.001 42.2452C66.2786 41.3641 69.2005 41.3306 71.0095 41.3598C71.282 41.3642 69.3063 42.559 65.8706 44.6639C64.0272 45.7933 62.1012 47.2382 60.8492 48.0955C59.1357 49.2688 58.4099 49.6761 58.0481 50.0157C57.872 50.1809 57.7469 50.3676 60.5212 48.6429C63.2954 46.9183 68.9818 43.2857 72.1182 41.3281C76.3088 38.7125 77.6453 38.6822 78.3824 38.6717C78.5984 38.6686 78.4812 38.8278 76.6842 40.0096C74.8871 41.1914 71.4108 43.4313 69.4969 44.6857C66.4324 46.6943 65.4298 48.1204 65.3969 48.3659C65.3645 48.6071 67.7697 47.7078 71.4603 46.137C74.6575 44.7762 76.2251 43.7727 76.5681 43.9236C77.9289 44.5221 74.8195 48.1839 73.8917 49.2995C73.4956 49.7758 75.1511 46.7263 76.5822 44.394C77.5007 42.8969 78.6746 41.8602 79.2907 41.3626C79.3087 41.348 79.0984 41.4264 77.7172 42.561C76.336 43.6956 73.7647 45.8761 72.3711 47.0839C70.9775 48.2917 70.8395 48.4606 70.6103 48.7804" stroke="#FFCF3E" stroke-width="4" stroke-linecap="round"/>
<circle cx="121" cy="30.5" r="11.5" fill="white"/>
<circle cx="119" cy="31.5" r="9.5" fill="#292B39"/>
<ellipse cx="457.03" cy="34.8115" rx="70.5" ry="14" transform="rotate(-5.59887 457.03 34.8115)" fill="#58371F"/>
<ellipse cx="456.26" cy="50.6441" rx="70.5" ry="14" transform="rotate(7.97352 456.26 50.6441)" fill="#6C4A31"/>
<path d="M453.79 86.9939C453.547 88.9278 450.963 89.4068 450.043 87.6885L444.87 78.0294C444.231 76.8359 444.937 75.3655 446.268 75.1187L452.809 73.9063C454.14 73.6596 455.327 74.7791 455.158 76.1224L453.79 86.9939Z" fill="#E5B730"/>
<rect x="367.5" y="69" width="78" height="3" rx="1.5" fill="#FFCF3E"/>
<path d="M445.79 81.9939C445.547 83.9278 442.963 84.4068 442.043 82.6885L436.87 73.0294C436.231 71.8359 436.937 70.3655 438.268 70.1187L444.809 68.9063C446.14 68.6596 447.327 69.7791 447.158 71.1224L445.79 81.9939Z" fill="#FFCF3E"/>
<path d="M1.5 59.5C42.9992 57.4029 63.3207 55.9775 65 50.5" stroke="#E5B730" stroke-width="3" stroke-linecap="round"/>
</svg>
