<svg width="425" height="481" viewBox="0 0 425 481" fill="none" xmlns="http://www.w3.org/2000/svg">
<rect x="67" y="252.502" width="261" height="228" rx="100" fill="#131F1B"/>
<rect x="152" y="65.5022" width="91" height="206" rx="45.5" fill="#131F1B"/>
<rect x="9" y="187.104" width="84.6148" height="134.436" rx="42.3074" transform="rotate(-19.7561 9 187.104)" fill="#131F1B"/>
<rect x="333.871" y="158.502" width="84.6148" height="134.436" rx="42.3074" transform="rotate(33.332 333.871 158.502)" fill="#131F1B"/>
<path d="M198.466 1.96476C197.927 -5.06213 161.302 70.3827 167.764 64.6662C174.226 58.9497 213.547 55.792 224.859 64.6662C236.171 73.5405 199.005 8.99165 198.466 1.96476Z" stroke="#131F1B" stroke-width="3" stroke-linecap="round"/>
<path d="M26.9619 118.318C24.1779 112.603 17.9368 188.209 21.5507 181.241C25.1646 174.274 57.6208 158.413 70.1949 162.058C82.769 165.703 29.7458 124.033 26.9619 118.318Z" stroke="#131F1B" stroke-width="3" stroke-linecap="round"/>
<path d="M402.079 133.605C404.898 127.907 341.265 169.21 348.987 167.808C356.71 166.406 389.109 182.383 393.915 194.561C398.722 206.738 399.261 139.302 402.079 133.605Z" stroke="#131F1B" stroke-width="3" stroke-linecap="round"/>
<path d="M203.001 37.4243C202.78 37.5639 201.639 38.4849 200.471 40.0659C200.098 40.5702 200.106 41.4929 200.132 42.5523C200.157 43.5824 200.886 43.9287 201.674 44.4208C202.526 44.9532 203.632 44.8162 204.588 44.5972C206.899 44.0675 208.48 42.0372 208.528 41.938C208.641 41.6991 208.003 42.8535 207.688 44.5163C207.177 47.2113 207.384 49.1663 207.485 49.6942C207.758 51.1251 209.124 52.0274 211.25 53.2228C213.089 54.2574 214.896 54.1248 215.662 54.4666C217.239 55.1713 218.074 57.311 218.805 58.4305C219.347 58.8929 220.506 59.4266 221.769 59.6041C222.203 59.6139 222.845 59.6254 223.507 59.6372" stroke="#131F1B" stroke-width="6" stroke-linecap="round"/>
<path d="M225.617 62.281C225.612 62.281 225.607 62.281 225.678 62.3749C225.75 62.4687 225.898 62.6564 226.106 62.9552" stroke="#131F1B" stroke-width="4" stroke-linecap="round"/>
<path d="M172.011 57.7315C171.798 57.8822 170.516 59.3113 169.859 60.2565C169.701 60.4838 169.707 61.0205 169.773 61.5224C169.889 62.4103 171.81 60.2978 172.998 59.9862C173.446 59.8687 174.663 59.6607 177.396 58.5069C179.211 57.7405 181.447 55.7082 182.518 54.8352C183.59 53.9621 183.313 54.0801 181.825 54.8859C180.336 55.6917 177.644 57.1818 176.282 57.8685C174.92 58.5551 174.97 58.3933 175.301 57.892C175.632 57.3906 176.242 56.5546 177.27 55.421C178.298 54.2874 179.723 52.8814 180.34 52.2097C180.8 51.7072 178.763 52.8952 176.208 54.5443C175.382 55.0778 175.438 54.8803 176.246 53.9542C177.055 53.028 178.594 51.3497 179.288 50.5622C179.819 49.9593 177.288 52.4585 174.631 54.973C174.344 55.2446 175.885 52.9617 176.633 51.9148C177.38 50.8679 177.205 50.9944 175.994 52.1629C174.782 53.3313 172.54 55.5377 171.407 56.6024C170.274 57.667 170.319 57.5229 171.292 56.0891C172.266 54.6553 174.167 51.9361 175.133 50.6123C176.099 49.2885 176.073 49.4425 175.636 50.331C175.2 51.2196 174.353 52.8381 173.887 53.7463C173.42 54.6545 173.359 54.8035 173.987 53.9681C174.614 53.1327 175.931 51.3084 176.685 50.2887C177.439 49.269 177.591 49.1091 177.747 48.9443" stroke="#131F1B" stroke-width="4" stroke-linecap="round"/>
<path d="M176.759 47.0547C176.759 47.0443 176.807 46.6647 177.522 44.7755C178.109 43.2271 179.478 40.616 180.998 38.0394C182.518 35.4628 184.231 33.0343 185.041 31.909C185.851 30.7837 185.706 31.0354 183.923 33.5303C182.139 36.0252 178.722 40.7557 177.061 43.1149C175.399 45.4741 175.598 45.3187 177.685 43.2516C179.773 41.1846 183.742 37.2105 185.872 35.1021C188.002 32.9938 188.171 32.8716 188.192 32.99C188.214 33.1085 188.081 33.4712 186.731 35.6513C185.381 37.8315 182.816 41.8181 181.953 43.3231C181.748 43.6793 183.94 41.7129 185.815 40.1225C187.347 38.823 188.338 38.3674 188.516 38.3469C188.556 38.3423 188.434 38.4941 186.525 40.268C184.616 42.0418 180.909 45.4702 178.723 47.5561C176.537 49.642 175.984 50.2816 175.765 50.5741C175.546 50.8667 175.676 50.7928 178.226 48.5869C180.775 46.381 185.739 42.0452 188.252 39.8798C190.765 37.7145 190.675 37.8509 188.457 40.372C186.239 42.893 181.895 47.7945 179.606 50.4023C177.316 53.0102 177.212 53.1758 177.298 53.2104C177.384 53.2449 177.664 53.1434 180.045 51.6719C182.426 50.2003 186.9 47.3617 186.939 47.7895C186.979 48.2173 182.448 51.9976 180.201 53.9283C177.955 55.8591 178.13 55.8257 179.789 54.9516C181.449 54.0776 184.587 52.3639 186.093 51.625C187.6 50.8862 187.379 51.1742 186.239 52.4366C185.098 53.6989 183.044 55.927 182.096 57.0552C181.148 58.1834 181.368 58.1443 182.201 57.6891C183.033 57.2339 184.47 56.3638 185.123 55.9222C185.776 55.4806 185.602 55.4938 184.74 55.8016C183.879 56.1093 182.335 56.7112 181.7 56.9829C181.064 57.2545 181.382 57.1777 183.43 56.6041C185.479 56.0305 189.247 54.9625 191.308 54.3601C193.369 53.7578 193.608 53.6535 193.655 53.589C193.919 53.2238 192.558 53.5478 192.019 53.8355C191.868 53.9163 191.822 54.1623 191.713 54.2965C191.515 54.5388 189.591 54.7734 186.605 55.1663C184.67 55.421 183.852 55.7206 183.708 55.8926C182.473 57.3692 188.879 56.4414 188.364 56.455C187.975 56.4652 187.341 56.6413 186.943 56.7395C186.545 56.8378 186.405 56.8936 189.683 56.7371C192.961 56.5807 199.661 56.2103 203.207 56.0245C206.754 55.8386 206.944 55.8485 208.666 56.3002C210.389 56.7519 213.638 57.6451 215.215 58.1348C216.792 58.6245 216.597 58.6836 215.767 58.7189C214.937 58.7542 213.477 58.7639 211.518 58.5781C209.56 58.3923 207.149 58.0106 205.781 57.782C204.414 57.5534 204.165 57.4894 203.97 57.4235" stroke="#131F1B" stroke-width="4" stroke-linecap="round"/>
<path d="M197.487 4.94336C197.487 4.95578 197.459 5.0567 196.407 7.17013C195.398 9.19694 193.361 13.1295 191.872 16.5076C190.383 19.8858 189.488 22.5823 188.74 24.6408C187.992 26.6994 187.419 28.0382 186.611 29.2556C185.802 30.4729 184.776 31.5281 184.085 32.3156C183.01 33.5414 182.692 34.1687 182.626 34.2368C182.609 34.2542 182.6 34.1397 183.391 32.4326C184.182 30.7255 185.766 27.4044 186.615 25.6359C187.521 23.7476 187.611 23.4819 187.648 23.1886C187.666 23.0452 187.706 22.9164 189.105 20.5181C190.504 18.1197 193.266 13.4566 194.864 10.8631C196.463 8.26957 196.814 7.88698 197.052 7.62024C197.29 7.35351 197.405 7.21424 197.507 7.18397C197.608 7.15371 197.694 7.23667 198.033 7.70323C198.373 8.16978 198.965 9.0174 200.032 11.2807C201.099 13.5439 202.623 17.1971 203.4 19.0168C204.129 20.7251 204.145 20.7194 204.497 22.0159C204.815 23.1853 205.541 25.3573 206.628 28.1863C207.714 31.0154 209.171 34.4264 209.946 36.2726C210.722 38.1187 210.772 38.2965 210.741 38.3166C210.584 38.4203 210.348 37.6686 210.121 36.9713C210.018 36.6547 209.98 36.4015 210.552 37.0481C211.123 37.6948 212.315 39.2458 212.935 39.9862C213.554 40.7266 213.565 40.6092 213.547 40.4703C213.529 40.3313 213.482 40.1743 212.512 38.2278C211.542 36.2814 209.65 32.5504 208.613 30.4268C207.393 27.9278 207.286 27.2987 207.248 27.079C207.243 27.0457 207.284 27.1693 208.275 29.3206C209.265 31.472 211.209 35.6469 212.246 37.9346C213.284 40.2224 213.358 40.4965 213.353 40.6577C213.348 40.8189 213.261 40.8589 213.159 40.8722C212.943 40.9004 212.671 40.7908 211.897 40.2716C211.257 39.8423 210.184 38.9777 209.031 37.9022C207.877 36.8267 206.693 35.5412 206.083 34.9645C205.472 34.3878 205.471 34.5587 205.819 36.1985C206.167 37.8383 206.865 40.9417 206.893 41.4212C206.922 41.9008 206.259 39.6625 205.888 38.461C205.516 37.2596 205.457 37.163 205.38 37.1534C205.201 37.1307 204.845 38.659 204.423 40.8397C204.264 41.6658 204.268 41.9325 204.336 41.9987C204.499 42.1561 204.94 41.3662 205.417 40.4603C206.311 38.7606 206.273 38.1194 206.247 37.7282C206.237 37.5821 206.033 37.5924 205.858 37.6704C205.459 37.848 205.035 38.3668 204.165 39.6252C203.518 40.5623 202.598 42.2025 201.918 43.4735C200.789 45.5835 200.444 46.6354 200.389 46.8433C200.363 46.9402 200.355 47.0224 200.448 47.0744C200.71 47.2207 201.388 46.9211 202.082 46.6464C202.317 46.5537 202.376 46.8132 202.398 47.0014C202.484 47.7288 202.633 48.4125 203.286 49.5772C203.933 50.733 205.244 51.6325 205.937 51.9576C206.067 52.0183 206.196 52.0259 206.336 51.9957C206.476 51.9656 206.63 51.8778 206.72 51.7547C206.899 51.5122 206.86 51.1806 206.849 50.9067C206.837 50.6237 206.682 50.3817 206.493 50.1943C206.117 49.822 204.855 49.8089 203.745 49.9717C202.827 50.1063 202.233 51.4942 201.797 52.3787C201.665 52.6468 201.66 52.9379 201.659 53.2076C201.659 53.339 201.714 53.4564 201.801 53.552C202.219 54.0102 203.26 53.9399 204.283 53.8434C205.355 53.7422 205.976 52.5926 206.325 51.7702C206.482 51.4003 206.369 50.9899 206.188 50.6131C205.988 50.1962 205.453 49.9535 204.912 49.7098C204.33 49.4484 202.926 49.3558 201.22 49.2765C199.85 49.2129 199.058 50.0366 198.646 50.4814C198.311 50.8419 198.388 51.2573 198.445 51.4787C198.475 51.5926 198.582 51.6824 198.723 51.7573C199.723 52.287 201.596 51.8781 202.697 51.287C203.338 50.943 203.516 50.2995 203.595 49.8109C203.614 49.6959 203.55 49.5921 203.467 49.5089C203.03 49.072 201.328 49.1043 199.834 49.2556C198.56 49.3848 197.813 50.4272 197.109 51.3296C196.431 52.1991 196.5 52.662 196.557 52.8342C196.645 53.0998 197.09 53.1116 197.446 53.0831C197.858 53.0503 198.443 52.6403 199.251 52.0107C200.201 51.2696 200.682 50.6254 200.814 50.4245C200.878 50.327 200.919 50.228 200.865 50.1778C200.812 50.1277 200.657 50.1266 200.509 50.1634C199.638 50.3795 198.361 52.3859 197.902 53.2258C197.856 53.3105 197.955 53.4199 198.052 53.4741C198.603 53.7803 199.798 53.3337 201.987 52.5154C203.395 51.9888 204.353 50.8744 204.655 50.3904C204.721 50.2845 204.725 50.1616 204.721 50.0626C204.716 49.9636 204.681 49.8815 204.591 49.8143C204.382 49.658 203.433 49.6247 202.034 49.6382C200.958 49.6486 200.149 50.0248 199.381 50.42C198.485 50.8807 197.363 51.8565 196.281 52.8281C195.886 53.1827 195.842 53.2967 195.964 53.3524C196.353 53.5292 197.445 53.1593 199.035 52.4795C199.899 52.1096 200.784 51.4777 201.547 50.8827C202.964 49.7761 203.569 48.9246 203.681 48.6234C203.734 48.4835 203.75 48.3607 203.696 48.2591C203.574 48.0303 203.136 47.95 202.104 47.884C201.312 47.8333 199.969 47.8745 198.908 47.9696C197.847 48.0647 197.107 48.2449 196.312 48.5264C194.66 49.1113 193.507 49.7984 192.993 50.1783C192.798 50.3224 192.774 50.4149 192.857 50.4513C193.115 50.5654 193.518 50.3983 194.165 50.0647C195.444 49.4062 196.557 48.533 197.139 47.9924C197.445 47.708 197.551 47.4851 197.579 47.3005C197.633 46.9437 196.606 47.3283 195.461 47.9873C194.278 48.6685 193.49 49.5443 193.015 50.071C192.434 50.7151 192.128 51.2786 192.105 51.4326C192.098 51.4833 192.312 51.3697 193.144 50.5917C193.976 49.8137 195.474 48.3471 196.459 47.311C197.927 45.7661 198.339 45.0511 198.328 44.919C198.277 44.3491 196.741 45.6381 195.606 46.5882C194.888 47.19 193.973 48.1417 193.116 49.1645C192.26 50.1872 191.513 51.2796 191.103 51.894C190.628 52.6042 190.558 52.8144 190.525 52.9134C190.244 53.7559 191.488 50.5681 191.363 50.0823C191.308 49.8694 191.159 49.7298 190.999 49.6142C190.8 49.4709 190.377 49.4196 189.986 49.259C189.833 49.1963 189.872 49.0058 191.075 48.0369C192.279 47.0681 194.67 45.2843 195.836 44.3785C197.002 43.4727 196.87 43.499 194.739 45.1213C192.609 46.7436 188.486 49.9612 186.434 51.5776C184.382 53.1939 184.527 53.1115 186.801 51.1032C189.075 49.0949 193.473 45.1633 195.799 43.0729C198.124 40.9825 198.243 40.8526 198.26 40.7468C198.276 40.6409 198.188 40.5632 197.983 40.5581C197.777 40.5531 197.458 40.623 195.142 41.7435C192.826 42.864 188.522 45.0331 186.408 46.1121C184.294 47.1911 184.5 47.1144 187.177 45.377C189.854 43.6395 194.996 40.2438 197.725 38.4258C200.454 36.6079 200.615 36.4707 200.742 36.3544C200.868 36.2382 200.956 36.1471 200.811 36.1001C200.667 36.0531 200.288 36.053 197.864 37.1298C195.439 38.2065 190.979 40.3602 187.911 41.9706C184.844 43.581 183.304 44.5828 182.638 45.0382C181.972 45.4935 182.227 45.3719 184.193 43.9721C186.16 42.5723 189.83 39.8981 191.642 38.5423C193.454 37.1865 193.296 37.2302 191.915 38.2043C190.534 39.1783 187.935 41.0815 186.798 41.9554C185.662 42.8294 186.068 42.6165 187.498 41.5518C188.929 40.4871 191.372 38.5771 193.009 37.1829C194.646 35.7888 195.404 34.9684 195.828 34.4847C196.252 34.001 196.321 33.879 196.354 33.7677C196.387 33.6565 196.383 33.5597 196.135 33.5223C195.4 33.412 194.418 33.6558 192.245 34.5241C190.515 35.2158 187.604 36.6446 186.097 37.2734C184.59 37.9021 184.6 37.7456 185.554 35.4086C186.508 33.0715 188.406 28.5587 189.45 26.1203C190.494 23.6819 190.626 23.4546 190.684 23.4317C190.742 23.4088 190.721 23.5971 189.995 25.5318C189.269 27.4665 187.838 31.142 187.105 32.911C186.371 34.68 186.377 34.4311 186.93 32.4686C187.483 30.5061 188.582 26.8376 189.17 24.9014C189.758 22.9651 189.802 22.8723 189.818 23.177C189.834 23.4816 189.82 24.1865 189.519 25.9745C189.217 27.7625 188.628 30.6122 188.308 32.5671C187.988 34.522 187.955 35.4957 188.012 35.871C188.068 36.2463 188.217 35.9937 188.572 33.184C188.927 30.3743 189.485 25.0152 189.86 23.9623C190.236 22.9095 190.411 26.3251 190.708 29.0503C191.004 31.7756 191.415 33.7069 191.779 35.1737C192.142 36.6405 192.446 37.5842 192.642 38.0224C192.837 38.4605 192.915 38.3645 192.969 34.7708C193.022 31.177 193.049 24.0885 193.077 23.3365C193.105 22.5844 193.134 28.3838 193.16 31.4677C193.185 34.5516 193.206 34.7443 193.252 31.6237C193.298 28.5031 193.369 22.0633 193.426 22.401C193.483 22.7387 193.525 30.049 193.553 33.7648C193.582 37.4807 193.596 37.3806 193.645 33.47C193.694 29.5595 193.777 21.8414 193.856 20.8431C193.936 19.8448 194.009 25.8 194.398 30.8831C194.787 35.9662 195.489 39.9968 195.866 41.9829C196.242 43.9691 196.272 43.7887 196.167 37.8102C196.061 31.8316 195.82 20.0603 195.805 18.9592C195.791 17.8581 196.011 27.7838 196.102 32.8295C196.194 37.8753 196.15 37.7403 195.983 34.0545C195.816 30.3687 195.527 23.1361 195.37 19.3669C195.212 15.5976 195.197 15.5108 195.157 15.5492C195.117 15.5877 195.053 15.754 194.349 19.386C193.646 23.0179 192.303 30.1103 191.594 33.8107C190.885 37.5112 190.85 37.6047 190.819 37.611C190.789 37.6172 190.765 37.5333 190.78 35.3702C190.795 33.2072 190.849 28.9676 191.154 25.2862C191.459 21.6048 192.012 18.6102 192.322 17.129C192.631 15.6477 192.681 15.7706 192.778 17.194C192.875 18.6174 193.018 21.3375 193.154 23.1073C193.347 25.62 193.566 26.4571 193.623 26.5022C193.662 26.5334 193.693 26.2999 193.963 23.7072C194.233 21.1144 194.735 16.0976 195.009 13.4352C195.284 10.7727 195.317 10.6166 195.517 15.2394C195.718 19.8622 196.085 29.2687 196.493 35.5969C196.902 41.9252 197.34 44.8903 197.542 41.235C197.743 37.5797 197.694 27.2142 198.496 26.7784C199.298 26.3425 200.954 36.1504 201.819 41.2461C202.684 46.3417 202.708 46.428 202.23 43.2046C201.751 39.9813 200.77 33.4456 200.236 27.1697C199.703 20.8937 199.649 15.0755 199.724 14.4764C199.799 13.8773 200.006 18.6736 200.514 23.5758C201.022 28.478 201.826 33.3408 202.188 35.7678C202.551 38.1948 202.448 38.0387 201.103 34.8565C199.759 31.6744 197.175 25.4708 195.83 22.2156C194.485 18.9605 194.458 18.8418 194.443 18.7278C194.428 18.6139 194.426 18.5084 195.522 20.7236C196.618 22.9388 198.813 27.4779 199.948 29.7191C201.083 31.9602 201.093 31.7658 200.532 27.6244C199.97 23.483 198.838 15.4005 198.212 11.0818C197.587 6.7631 197.503 6.45319 197.451 6.34594C197.399 6.23869 197.383 6.3435 197.406 6.64836C197.429 6.95322 197.493 7.45497 198.374 11.0544C199.255 14.6539 200.952 21.3359 201.873 24.8989C202.794 28.462 202.887 28.7036 202.961 28.8647C203.073 29.107 203.165 29.7131 203.28 30.9454C203.345 31.6426 203.537 32.4727 204.215 34.4236C204.893 36.3744 206.08 39.4177 207.04 41.6076C207.999 43.7976 208.695 45.042 209.126 45.7856C209.556 46.5291 209.7 46.734 209.778 46.6944C209.856 46.6548 209.864 46.3645 208.913 43.3563C207.963 40.3482 206.053 34.6311 205.078 31.7687C204.102 28.9063 204.118 29.0719 204.806 30.7671C205.495 32.4624 206.856 35.6823 207.536 37.2307C208.216 38.7791 208.173 38.5584 208.012 38.1555C207.852 37.7525 207.576 37.1739 207.343 36.7385C207.11 36.3031 206.929 36.0284 206.743 35.7454" stroke="#131F1B" stroke-width="4" stroke-linecap="round"/>
<path d="M221.483 55.04C221.488 55.1817 221.554 55.5488 222.176 56.7445C222.356 57.0897 222.589 57.3483 222.697 57.4293C222.804 57.5102 222.804 57.3912 222.309 56.3309C221.814 55.2705 220.824 53.2723 220.278 52.1955C219.731 51.1186 219.658 51.0236 219.628 51.0432C218.966 51.4839 220.713 52.9387 221.007 53.3036C221.093 53.4105 221.073 53.34 220.248 52.0703C219.422 50.8005 217.798 48.3291 216.962 47.1335C216.125 45.938 216.124 46.0932 216.222 46.5491C216.32 47.0049 216.516 47.7566 216.608 48.0054C216.699 48.2542 216.679 47.9773 216.428 46.7784C216.176 45.5795 215.693 43.4668 215.354 42.1247C215.015 40.7826 214.834 40.2751 214.741 40.0734C214.647 39.8717 214.646 39.9911 214.94 41.0533C215.233 42.1154 215.821 44.1166 216.591 46.1861C217.362 48.2556 218.298 50.3326 218.791 51.3386C219.283 52.3446 219.304 52.2165 219.232 51.8903C219.161 51.5642 218.995 51.0438 218.49 49.983C217.984 48.9222 217.143 47.3367 216.493 46.2304C215.476 44.5026 214.89 43.8823 214.758 43.8357C214.595 43.7779 214.583 44.333 214.694 45.3012C214.776 46.016 215.038 47.1671 215.537 48.79C216.036 50.4129 216.796 52.4683 216.488 51.8543C216.18 51.2402 214.78 47.8945 214.04 46.14C213.299 44.3854 213.259 44.3235 213.217 44.3283C213.101 44.3414 213.095 45.1123 213.145 46.326C213.169 46.9106 213.261 47.4274 213.441 48.1856C213.621 48.9438 213.903 49.9266 214.265 50.905C214.627 51.8834 215.059 52.8275 215.29 53.1967C215.521 53.5658 215.537 53.3315 215.081 52.1454C214.626 50.9594 213.698 48.8288 213.016 47.445C212.026 45.4363 211.443 44.8414 211.312 44.7505C211.248 44.7066 211.167 44.7104 211.124 44.967C210.997 45.7348 211.084 46.4794 211.207 47.0516C211.559 48.6946 211.982 48.949 212.13 49.0375C212.196 49.0772 212.284 48.9985 212.337 48.7695C212.48 48.1474 212.417 47.2487 212.308 46.3195C212.102 44.5643 211.352 43.89 211.235 43.7641C211.171 43.6966 211.072 43.6521 210.99 43.7271C210.755 43.9409 210.733 45.2932 210.693 46.996C210.668 48.0474 210.912 48.5547 211.127 48.8939C211.177 48.9718 211.277 48.9994 211.34 48.9867C211.403 48.9739 211.443 48.9045 211.567 47.2437C211.691 45.5829 211.896 42.3326 211.967 40.6529C212.037 38.9732 211.967 38.9625 211.893 39.0057C211.819 39.0489 211.743 39.1462 211.405 39.7163C211.067 40.2864 210.469 41.3263 209.775 42.508" stroke="#131F1B" stroke-width="4" stroke-linecap="round"/>
<path d="M352.417 166.146C352.714 166.078 355.765 164.669 358.127 163.328C359.385 162.614 360.663 161.664 362.176 160.806C364.219 159.647 366.351 158.002 367.974 156.68C368.569 156.196 368.723 156.125 371.878 153.864C375.033 151.603 381.19 147.163 384.502 144.797C387.813 142.43 388.093 142.271 388.849 141.885C390.824 140.876 392.332 140.108 392.796 139.822C395.055 138.424 398.68 136.54 398.951 136.588C399.29 136.649 399.184 138.644 398.909 142.279C398.752 144.364 398.208 146.906 397.522 150.768C396.837 154.631 395.936 159.728 395.395 163.196C394.854 166.664 394.7 168.347 394.591 169.321C394.482 170.294 394.421 170.506 394.376 174.19C394.33 177.875 394.301 185.025 394.323 188.612C394.344 192.198 394.418 192.003 394.668 190.334C394.919 188.664 395.344 185.527 395.72 183.275C396.096 181.024 396.411 179.754 396.711 176.718C397.01 173.683 397.285 168.92 397.409 166.381C397.437 163.324 397.344 162.64 397.18 161.947C397.146 161.751 397.131 161.526 396.97 160.912" stroke="#131F1B" stroke-width="4" stroke-linecap="round"/>
<path d="M355.574 166.281C356.109 166.289 358.114 166.562 361.07 167.721C362.135 168.138 363.467 168.867 364.912 169.714C367.907 171.469 369.539 172.676 369.871 172.801C370.616 173.082 373.21 174.14 376.903 176.137C379.444 177.51 381.186 178.929 383.534 180.544C384.989 181.546 386.72 183.269 387.951 184.525C390.763 187.817 391.577 188.661 391.89 188.962C392.072 189.152 392.301 189.415 392.726 189.948" stroke="#131F1B" stroke-width="4" stroke-linecap="round"/>
<path d="M392.151 188.983V189.887" stroke="#131F1B" stroke-width="4" stroke-linecap="round"/>
<path d="M392.616 185.726C392.608 185.545 392.071 184.131 391.374 183.102C391.305 182.999 391.163 183.297 391.179 183.484C391.196 183.671 391.32 183.831 391.465 183.954C391.61 184.076 391.772 184.157 391.933 184.162C392.095 184.166 392.251 184.092 392.357 183.941C392.884 183.193 392.51 181.918 392.029 180.942C391.806 180.491 391.36 180.325 391.056 180.22C390.902 180.166 390.725 180.206 390.624 180.483C390.342 181.257 390.579 182.018 390.822 182.278C390.933 182.398 391.116 182.38 391.282 182.342C391.962 182.183 392.283 181.336 392.638 180.407C393.128 179.121 393.008 177.492 392.728 176.717C392.443 175.931 391.428 175.691 390.413 175.465C389.116 175.176 388.043 175.42 387.647 175.577C387.167 175.767 386.865 176.182 386.651 176.498C386.441 176.81 386.367 177.254 386.376 177.738C386.381 177.97 386.487 178.169 386.634 178.327C387.302 179.048 388.442 178.938 389.078 178.857C389.7 178.778 390.107 177.985 390.439 177.267C390.692 176.723 390.658 176.181 390.565 175.694C390.475 175.219 390.012 175.012 389.701 174.893C388.721 174.515 387.348 174.785 386.889 174.969C386.366 175.18 386.175 175.81 386.106 176.325C386.05 176.747 386.089 177.144 386.167 177.547C386.337 178.426 387.26 178.909 388.236 179.453C388.722 179.724 389.221 179.754 389.639 179.723C389.85 179.707 390.046 179.586 390.182 179.455C390.318 179.325 390.385 179.161 390.408 178.959C390.431 178.756 390.409 178.52 390.266 178.35C389.953 177.977 389.257 177.981 388.632 178.038C388.072 178.09 387.676 178.567 387.387 179.006C386.987 179.614 386.997 180.896 387.206 181.789C387.245 181.955 387.463 182.037 387.627 182.103C387.79 182.169 387.963 182.185 388.128 182.141C388.9 181.935 389.197 180.841 389.356 180.074C389.399 179.868 389.384 179.641 389.402 179.625C389.549 179.502 389.685 180.302 389.911 180.733C389.978 180.863 389.774 180.871 388.352 180.157C386.929 179.442 384.249 178.021 382.631 177.128C380.512 175.957 379.888 175.331 378.975 174.409C378.264 173.69 376.889 172.634 375.439 171.605C373.989 170.576 372.464 169.651 371.242 168.987C367.744 167.084 365.979 166.849 364.538 166.353C360.558 164.983 359.909 164.465 359.578 164.257C359.235 164.042 360.535 164.038 363.288 162.464C365.878 160.983 370.791 157.951 373.252 156.426C375.712 154.902 375.545 154.933 373.969 155.893C372.392 156.852 369.412 158.739 367.077 160.44C364.742 162.142 363.143 163.6 362.073 164.639C361.004 165.677 360.511 166.251 362.13 165.193C363.749 164.135 367.495 161.428 369.054 160.548C370.614 159.667 369.874 160.695 369.304 161.658C368.733 162.621 368.356 163.489 368.389 163.779C368.423 164.07 368.879 163.756 370.688 161.841C372.496 159.925 375.642 156.416 377.141 154.682C378.641 152.948 378.399 153.094 376.68 154.772C374.962 156.451 371.774 159.657 370.027 161.448C368.279 163.24 368.069 163.519 368.175 163.623C368.555 163.998 370.793 162.539 374.052 160.325C377.38 158.064 379.111 156.103 379.648 155.457C379.873 155.187 379.964 155.006 379.882 154.908C379.647 154.627 378.996 154.886 378.429 155.167C377.755 155.501 376.364 156.856 374.098 159.394C371.33 162.496 369.975 165.576 369.789 166.069C368.239 170.18 372.134 161.465 372.084 160.962C372.032 160.438 371.097 160.669 370.714 160.716C369.384 160.88 367.677 162.098 366.833 162.763C366.565 162.975 366.823 163.139 367.103 163.184C367.722 163.283 368.96 162.978 370.878 162.408C374.945 161.198 375.792 159.926 375.965 159.638C376.026 159.536 375.632 159.481 375.351 159.528C373.481 159.836 371.273 162.877 370.374 164.239C370.218 164.476 370.204 164.71 370.202 164.917C370.2 165.123 370.252 165.317 370.369 165.432C370.927 165.978 372.325 165.512 373.829 164.679C376.133 163.401 376.659 161.462 376.877 160.819C376.931 160.661 376.922 160.485 376.778 160.39C376.395 160.14 375.774 160.394 375.25 160.728C373.503 161.842 372.183 164.85 371.699 166.258C371.598 166.551 371.606 166.903 371.736 167.129C371.866 167.355 372.166 167.455 372.456 167.471C373.705 167.539 375.161 165.852 377.375 162.945C378.995 160.819 378.887 159.729 378.985 158.767C379.009 158.527 378.966 158.3 378.785 158.187C378.604 158.073 378.263 158.079 377.987 158.16C376.883 158.484 375.948 160.975 375.204 163.209C374.848 164.277 374.989 165.133 375.039 165.529C375.062 165.715 375.149 165.858 375.335 165.984C375.779 166.284 376.382 166.281 376.909 166.145C378.205 165.811 378.818 164.184 379.604 162.141C380.346 160.215 379.932 159.051 379.81 158.757C379.748 158.61 379.531 158.56 379.358 158.532C379.186 158.504 379.024 158.523 378.85 158.605C377.552 159.217 376.898 161.974 376.321 165.382C375.742 168.807 376.597 170.255 377.231 171.221C377.477 171.597 377.921 171.676 378.279 171.735C378.464 171.765 378.664 171.743 378.945 171.558C380.493 170.538 380.642 167.494 380.715 164.744C380.736 163.98 380.377 163.541 380.079 163.197C379.796 162.87 379.398 162.715 379.042 162.599C378.712 162.491 378.267 162.516 377.77 162.658C376.768 162.946 376.8 165.302 376.965 167.153C377.089 168.545 378.505 169.403 379.568 170.091C380.05 170.403 380.944 170.398 381.94 170.268C382.703 170.169 383.003 169.39 383.256 168.903C383.898 167.666 383.601 165.903 383.135 165.051C382.675 164.211 381.599 164.121 380.569 164.086C380.163 164.072 379.887 164.502 379.613 164.905C378.904 165.944 378.945 168.314 379.149 169.941C379.226 170.563 379.68 171.009 379.996 171.365C380.28 171.685 380.704 171.845 381.131 171.893C381.328 171.914 381.489 171.771 381.6 171.627C382.449 170.536 382.01 168.094 381.867 167.351C381.803 167.013 381.592 166.732 381.367 166.496C381.25 166.374 381.055 166.327 380.894 166.468C380.459 166.85 380.326 169.974 380.151 174.156C380.047 176.612 380.486 177.531 380.909 178.07C380.99 178.174 381.189 178.015 381.619 175.664C382.05 173.312 382.755 168.696 383.013 168.048C384.051 165.435 383.035 174.329 383.388 174.058C384.694 173.054 384.518 170.15 384.669 169.377C384.953 167.926 385.211 172.418 385.862 173.065C385.989 173.191 386.211 172.978 386.35 172.684C387.436 170.376 386.893 167.394 386.791 167.137C386.534 166.488 386.227 172.258 386.32 174.865C386.327 175.068 386.457 175.213 386.613 175.326C386.77 175.438 387.004 175.506 387.212 175.499C387.608 175.485 388.155 174.693 388.887 173.263C389.745 171.588 390.053 169.003 390.212 166.925C390.225 166.755 389.613 169.1 389.272 171.708C389.169 172.495 389.539 172.216 389.921 171.486C390.303 170.757 390.77 169.592 391.012 169.083C391.402 168.263 390.106 172.249 390.384 171.893C391.622 170.307 392.384 168.879 392.611 168.875C394.239 168.85 392.581 173.275 392.524 173.774C392.182 176.778 393.532 169.004 393.474 168.299C393.45 168.002 393.343 167.842 393.258 167.975C392.253 169.558 393.535 173.923 394.07 175.737C394.09 175.807 394.156 175.542 393.938 172.496C393.72 169.45 393.263 163.591 392.863 161.392C392.463 159.193 392.134 160.831 391.935 161.767C391.696 162.89 391.407 163.512 391.081 164.033C390.671 164.69 391.773 161.019 392.332 159.901C392.425 159.713 392.242 160.631 391.393 162.33C390.7 163.716 389.319 166.084 388.298 167.76C387.278 169.436 386.62 170.327 386.321 170.677C386.022 171.028 386.103 170.812 386.985 168.985C387.867 167.158 389.549 163.727 390.473 161.792C391.396 159.856 391.51 159.52 391.373 159.508C390.761 159.456 388.998 161.643 386.923 163.702C386.607 164.015 387.797 162.206 387.935 161.451C388.123 160.423 384.067 164.194 382.218 165.548C380.368 166.901 379.704 167.286 379.358 167.378C379.012 167.47 379.006 167.258 380.611 165.522C382.217 163.787 385.435 160.533 386.929 158.857C388.423 157.182 388.096 157.183 387.718 157.273C386.899 157.467 383.817 159.328 381.114 160.403C380.623 160.599 383.767 157.167 385.244 155.631C386.72 154.096 386.907 153.816 386.885 153.633C386.864 153.449 386.628 153.371 386.323 153.379C385.642 153.397 383.284 154.507 380.175 155.917C379.061 156.422 378.853 156.427 378.799 156.362C378.745 156.298 378.843 156.145 380 154.782C381.157 153.418 383.372 150.847 384.586 149.402C385.801 147.956 385.948 147.713 385.845 147.612C385.513 147.288 383.541 148.564 381.441 149.946C380.814 150.374 381.078 150.248 381.416 150.047C381.753 149.846 382.156 149.573 382.571 149.292" stroke="#131F1B" stroke-width="4" stroke-linecap="round"/>
<path d="M379.933 150.926C379.457 151.222 378.5 152.014 378.257 152.322C378.145 152.465 377.946 152.477 377.875 152.41C377.804 152.343 377.838 152.17 380.55 150.128C383.262 148.086 388.65 144.179 391.506 142.106C395.33 139.33 396.659 138.075 396.94 138.004C397.053 137.976 397.077 138.272 396.227 141.945C395.377 145.619 393.645 152.74 392.682 156.624C391.718 160.507 391.577 160.937 391.543 160.968C391.508 160.999 391.584 160.616 392.419 158.422C393.254 156.227 394.844 152.231 395.592 150.208C396.339 148.185 396.195 148.256 396.066 148.375C395.937 148.495 395.828 148.661 395.3 149.847C394.772 151.034 393.829 153.237 392.662 156.507C391.495 159.778 390.133 164.05 389.407 166.064C388.681 168.078 388.632 167.705 389.207 163.224C389.781 158.744 390.98 150.168 390.188 149.557C389.397 148.947 386.579 156.563 385.134 160.407C383.689 164.25 383.703 164.091 384.674 161.184C385.645 158.278 387.573 152.629 388.478 149.816C389.383 147.004 389.208 147.198 387.975 149.608C386.742 152.018 384.458 156.637 383.306 158.827C382.154 161.017 382.204 160.638 383.549 157.223C384.895 153.809 387.535 147.371 388.788 144.187C390.04 141.002 389.825 141.267 389.517 141.775C388.773 143.001 388.195 144.412 387.974 145.325C387.902 145.623 391.231 143.338 394.247 141.96C394.979 141.625 391.789 146.559 391.405 147.467C391.022 148.376 392.953 146.268 392.771 147.525C392.589 148.783 390.235 153.471 388.876 156.338C387.112 160.059 386.888 161.277 386.973 161.496C387.146 161.946 388.396 159.687 389.865 157.111C390.612 155.799 391.224 154.403 391.517 153.851C391.81 153.299 391.728 153.614 390.773 155.723C389.818 157.832 387.992 161.727 387.001 163.66C386.009 165.593 385.909 165.448 385.779 164.955" stroke="#131F1B" stroke-width="4" stroke-linecap="round"/>
<path d="M22.7672 177.209C22.7672 177.167 22.9973 175.948 23.3515 172.939C23.5637 171.136 23.4867 168.741 23.9179 163.941C24.3492 159.141 25.2001 152.001 25.664 146.198C26.1279 140.395 26.179 136.145 26.2784 132.988C26.3778 129.831 26.524 127.896 26.6118 126.795C26.7575 124.969 26.8172 124.041 26.9312 123.461C26.9713 123.318 27.0202 123.173 27.0702 123.026C27.1202 122.879 27.1698 122.735 27.221 122.587" stroke="#131F1B" stroke-width="4" stroke-linecap="round"/>
<path d="M24.4374 174.879C24.4476 174.879 25.0337 174.483 26.3101 173.592C27.8177 172.54 29.5017 171.406 31.5834 170.351C32.7569 169.756 34.2572 169.225 35.3351 168.775C37.0608 168.054 38.94 167.035 41.2448 165.864C43.0948 164.924 44.1962 164.676 45.6173 164.212C46.868 163.804 49.1791 163.001 50.4631 162.581C51.9201 162.104 53.8789 161.403 56.6919 160.291C58.5378 159.561 61.3967 159.385 63.4336 159.171C65.1984 158.985 66.4744 159.08 67.1965 159.262C67.3475 159.306 67.5094 159.358 67.6864 159.414C67.8635 159.47 68.0506 159.529 68.4447 159.622" stroke="#131F1B" stroke-width="4" stroke-linecap="round"/>
<path d="M68.4446 159.653C68.3495 159.468 67.5936 158.45 65.5239 156.446C64.6657 155.615 63.5807 155.113 62.2943 154.461C61.346 153.98 60.3243 153.101 58.8197 151.708C57.8419 150.803 56.6843 149.237 55.6835 148.118C54.6827 147 53.9391 146.31 52.7343 145.334C51.5295 144.359 49.886 143.118 48.6365 142.006C47.3871 140.895 46.5815 139.95 46.2262 139.564C45.8709 139.177 45.9902 139.376 46.0959 139.536C46.2015 139.697 46.2898 139.812 46.2401 139.825C46.1904 139.838 46.0001 139.745 44.6353 138.772C43.2706 137.799 40.7373 135.949 39.1492 134.854C37.5612 133.76 36.9952 133.475 36.2253 132.745C35.4554 132.015 34.4986 130.847 33.5802 129.882C31.8923 128.108 30.2504 126.447 29.179 124.885C28.7893 124.317 28.7185 124.2 29.3135 124.784C29.9086 125.369 31.1733 126.657 33.0346 128.302C34.896 129.946 37.3156 131.908 38.89 133.101C40.4645 134.293 41.1205 134.657 41.8837 135.109" stroke="#131F1B" stroke-width="4" stroke-linecap="round"/>
<path d="M30.0153 130.7C30.0051 130.139 29.742 127.437 29.3215 126.314C29.2693 126.175 29.0006 126.245 28.8494 126.287C28.6981 126.33 28.5876 126.421 28.5175 126.535C28.1822 127.083 28.4324 127.973 28.8441 129.032C28.941 129.281 29.0841 129.4 29.2185 129.482C29.353 129.563 29.5039 129.588 29.6539 129.557C29.8038 129.526 29.948 129.438 29.9033 129.431C28.7326 129.227 27.6107 131.788 27.0866 132.784C26.904 133.131 27.071 133.238 27.1999 133.263C28.704 133.557 31.2097 131.24 31.9975 130.848C32.2309 130.731 32.2045 130.993 32.1185 131.178C31.2762 132.986 28.5256 134.676 28.4544 134.9C28.3842 135.12 31.1494 133.874 34.655 132.188C35.8308 131.622 35.8518 131.796 35.7463 131.961C35.6409 132.127 35.4261 132.318 34.3536 133.12C33.2811 133.922 31.3574 135.33 30.2353 136.191C29.1131 137.052 28.8509 137.323 28.7757 137.498C28.7006 137.673 28.8205 137.745 28.9806 137.764C29.1408 137.784 29.3375 137.749 30.7748 137.173C32.2121 136.598 34.8841 135.483 36.4842 134.787C38.0843 134.092 38.5316 133.85 38.6592 133.807C38.7869 133.764 38.5813 133.928 36.8069 134.907C35.0324 135.886 31.6952 137.675 29.6995 138.814C27.0985 140.297 26.4676 140.948 26.4474 141.129C26.4031 141.527 27.4018 141.165 28.728 140.744C29.8151 140.398 31.7015 139.661 33.6386 138.742C35.5756 137.823 37.4955 136.713 38.5775 136.103C39.8333 135.395 40.1906 135.307 40.4845 135.303C40.6275 135.301 40.7469 135.42 40.755 135.557C40.7746 135.891 39.8921 136.596 37.0019 138.626C34.7954 140.176 30.9424 142.569 28.8468 143.94C25.992 145.809 25.6551 146.507 25.5293 146.878C25.4786 147.027 25.6847 147.131 25.8661 147.155C26.2538 147.209 27.3039 146.734 30.0111 145.333C31.9211 144.345 34.7811 142.536 36.7834 141.269C39.8492 139.328 41.1438 138.355 41.7197 138.074C42.7599 137.566 43.4142 137.658 43.7514 137.705C43.9091 137.728 44.0163 137.849 44.0848 138.102C44.2588 138.744 44.0815 139.405 43.8359 139.808C43.6218 140.158 43.1791 140.347 41.413 141.049C39.8792 141.659 37.0207 142.705 34.4432 143.875C31.8657 145.045 29.6481 146.287 28.3023 147.12C25.8811 148.62 25.501 149.708 25.1779 150.764C25.1314 150.916 25.3407 150.935 27.6169 149.387C29.8932 147.839 34.3051 144.727 36.8141 143.023C39.7418 141.034 40.8766 140.824 42.3543 140.697C44.3862 140.523 45.7422 140.764 46.0244 141.014C46.3003 141.257 46.3404 141.636 46.3453 141.964C46.3598 142.951 44.1839 143.937 41.0679 145.111C39.4565 145.718 36.6204 146.466 34.7684 147.112C32.0553 148.057 30.7792 148.969 29.8445 149.709C28.9251 150.437 28.4102 151.894 28.1592 153.543C27.9963 154.613 28.0841 155.168 27.8861 156.638C27.7065 157.972 27.0532 160.448 26.7524 161.87C26.3943 163.563 26.194 164.846 25.8145 166.463C25.6093 167.336 25.6274 168.641 25.7111 170.185C25.7386 170.693 25.9037 170.627 26.3378 170.322C26.7718 170.017 27.5128 169.472 29.5789 168.337C31.645 167.202 35.0138 165.494 36.986 164.457C38.9582 163.419 39.4318 163.105 41.1729 162.326C42.914 161.547 45.9082 160.313 47.7044 159.621C49.9814 158.744 51.5834 158.684 53.4093 158.605C56.1417 158.488 58.4853 157.183 59.5746 157.072C60.22 157.006 60.6828 156.799 60.8542 156.648C61.0813 156.447 59.5436 155.223 56.7919 153.364C55.3024 152.358 53.4252 151.535 52.2453 150.89C50.5437 149.96 49.8893 149.286 49.4425 148.749C47.6146 146.548 46.5091 143.494 46.5681 143.337C46.5981 143.257 46.8407 143.413 48.3167 144.502C49.7926 145.592 52.549 147.671 54.6244 149.435C56.6999 151.2 58.0109 152.588 58.7782 153.375C60.0856 154.716 61.0643 154.983 61.8382 155.11C62.7828 155.265 63.6604 156.078 63.9696 156.304C64.1022 156.401 64.083 156.573 62.2213 156.651C60.3596 156.728 56.6299 156.735 54.2383 156.823C50.8985 156.946 49.3832 157.405 48.6887 157.505C47.3887 157.692 51.8432 155.452 52.3139 155.536C53.1972 155.693 49.1458 157.874 47.9193 158.723C46.6927 159.572 46.8179 159.481 47.7416 158.659C48.6653 157.836 50.3837 156.284 51.0833 155.553C51.5536 155.061 48.7552 156.498 46.4519 157.557C46.1391 157.701 48.7071 155.084 48.3504 155.345C47.9937 155.606 44.9266 158.324 43.5842 159.585C42.2418 160.846 42.7172 160.568 43.8782 159.658C45.0393 158.748 46.8716 157.214 47.7 156.445C48.5284 155.676 48.2974 155.72 46.7358 156.406C45.1742 157.093 42.2889 158.421 40.7487 159.053C39.2085 159.686 39.1007 159.583 39.074 159.443C39.0473 159.303 39.1049 159.129 39.7553 157.847C40.4056 156.565 41.647 154.18 42.325 152.812C43.5499 150.34 43.153 148.355 42.8759 147.417C42.57 146.382 41.8202 145.588 41.8034 145.521C41.7861 145.453 41.9894 145.82 42.9731 147.107C43.9569 148.394 45.7759 150.72 47.2246 152.381C49.5758 155.075 50.9213 156.039 51.2121 156.141C51.3267 156.181 51.3962 155.959 51.422 155.778C51.4477 155.596 51.4333 155.402 50.9175 154.107C50.4017 152.812 49.3851 150.421 48.7691 149.029C48.0043 147.301 47.6566 146.854 47.4665 146.771C47.1936 146.651 48.2654 148.905 49.4944 151.264C49.8777 151.999 49.5952 151.884 49.1357 151.5C47.9705 150.526 46.6475 149.021 45.5472 147.613C44.241 145.942 43.8853 143.926 43.668 142.991C43.6059 142.724 43.6485 142.878 44.6615 144.365C45.6745 145.852 47.6583 148.668 48.985 150.419C51.547 153.8 52.8079 154.296 53.6583 154.705C54.6214 155.167 55.4177 155.046 55.9785 154.999C56.2303 154.978 56.4061 154.884 55.1245 154.885C53.8429 154.886 51.096 154.964 48.4193 155.262C45.7425 155.559 43.2191 156.074 41.8514 156.364C40.4837 156.655 40.3483 156.705 41.0272 156.148C43.1729 154.387 45.337 152.634 46.136 151.8C46.3575 151.569 46.1506 151.677 45.0128 153.053C43.8749 154.428 41.7983 157.054 40.6299 158.569C39.4616 160.083 39.2645 160.406 39.2646 160.483C39.2647 160.559 39.468 160.378 40.4996 159.353C41.5312 158.329 43.385 156.465 44.2721 155.53C45.1592 154.594 45.0234 154.644 42.9331 156.07C40.8428 157.495 36.8021 160.296 34.7439 161.645C32.6856 162.993 32.7323 162.806 34.1745 161.492C35.6168 160.178 38.4534 157.743 40.3192 156.223C42.9333 154.092 44.0409 153.524 44.2791 153.511C44.3657 153.507 44.1349 153.859 41.5484 156.663C38.9619 159.467 33.9634 164.803 31.453 167.38C28.9426 169.957 29.0717 169.612 30.4707 167.729C31.8697 165.846 34.5348 162.434 36.0339 160.548C37.5329 158.662 37.7853 158.405 37.7265 158.345C37.6677 158.285 37.2902 158.43 35.7782 159.608C34.2662 160.786 31.6311 162.994 29.6026 164.87C27.5742 166.747 26.2321 168.226 25.5894 168.914C24.9466 169.603 25.0439 169.457 27.8439 166.359C30.6439 163.261 36.1435 157.217 36.7846 155.948C37.4257 154.679 33.0415 158.368 30.6962 160.326C28.3509 162.284 28.1773 162.398 29.873 160.587C31.5688 158.776 35.139 155.035 36.9071 153.157C38.6751 151.278 38.5328 151.375 36.3953 153.486C34.2579 155.597 30.1296 159.72 30.5154 159.419C30.9012 159.119 35.9262 154.27 38.5706 151.697C41.2151 149.125 41.3267 148.976 41.2768 148.886C40.937 148.272 39.0519 149.192 36.5286 150.239C35.105 150.829 33.4787 151.742 32.6726 152.133C31.8665 152.524 31.9523 152.418 32.3886 151.938C33.6027 150.604 34.5149 149.556 34.5078 149.351C34.504 149.242 34.0908 149.451 32.8891 150.523C29.5274 153.52 27.7139 155.477 28.516 154.719C29.0845 154.181 29.8975 153.249 30.0664 153.354C30.2352 153.459 29.7139 154.607 29.5741 155.151C29.4343 155.695 29.6918 155.602 30.9153 154.63C32.1389 153.658 34.3209 151.811 35.6035 150.763C36.8862 149.715 37.2036 149.523 37.3658 149.496C37.561 149.463 36.5037 151.532 34.9228 154.301C34.2638 155.455 34.166 155.864 34.2074 156.224C34.2262 156.388 34.5181 156.416 34.762 156.394C35.2757 156.348 36.9684 155.301 38.9265 154.179C39.426 153.892 39.0025 154.334 38.8555 154.55C38.7086 154.767 38.8716 154.783 39.1028 154.704C39.3341 154.625 39.6286 154.451 40.1461 154.092" stroke="#131F1B" stroke-width="4" stroke-linecap="round"/>
</svg>
