<svg width="417" height="508" viewBox="0 0 417 508" fill="none" xmlns="http://www.w3.org/2000/svg">
<rect x="51.4194" y="61.6504" width="342" height="183" rx="20" transform="rotate(-8.42396 51.4194 61.6504)" fill="#449071"/>
<ellipse cx="200.716" cy="52.6821" rx="49" ry="46" transform="rotate(-8.42396 200.716 52.6821)" fill="#449071"/>
<ellipse cx="204.062" cy="67.2903" rx="37.5" ry="36.5" fill="white"/>
<ellipse cx="319.662" cy="262.645" rx="60.4223" ry="25.8643" transform="rotate(16.7463 319.662 262.645)" fill="#388063"/>
<path d="M376.248 250.257C377.098 249.933 377.905 250.819 377.502 251.635L371.863 263.037C371.551 263.668 370.701 263.787 370.227 263.266L363.985 256.407C363.511 255.887 363.709 255.052 364.367 254.8L376.248 250.257Z" fill="white"/>
<path d="M382.417 290.119C382.976 290.836 382.365 291.867 381.467 291.72L368.914 289.667C368.219 289.553 367.856 288.775 368.215 288.17L372.946 280.193C373.305 279.587 374.161 279.533 374.595 280.088L382.417 290.119Z" fill="white"/>
<path d="M387.45 268.206C388.342 268.385 388.55 269.566 387.773 270.04L376.915 276.665C376.313 277.031 375.532 276.678 375.409 275.985L373.798 266.852C373.675 266.158 374.289 265.559 374.979 265.698L387.45 268.206Z" fill="white"/>
<path d="M23.8156 136.153C15.7768 132.454 14.3692 121.624 21.1957 115.994L52.549 90.1338C59.8278 84.1304 70.8684 88.4883 72.0844 97.8447L77.6529 140.691C78.8689 150.048 69.3089 157.083 60.7375 153.139L23.8156 136.153Z" fill="#98D553"/>
<path d="M37.3774 213.222C29.3386 209.524 27.931 198.694 34.7574 193.063L66.1108 167.203C73.3895 161.2 84.4301 165.558 85.6461 174.914L91.2146 217.761C92.4306 227.117 82.8707 234.152 74.2992 230.209L37.3774 213.222Z" fill="#98D553"/>
<rect x="118.562" y="192.79" width="200" height="252" rx="9" fill="#449071"/>
<ellipse cx="216.062" cy="383.29" rx="130.5" ry="124.5" fill="#449071"/>
<ellipse cx="216.062" cy="61.7903" rx="15.5" ry="15" fill="black"/>
<path d="M68.3131 291.657C61.5714 285.926 63.1404 275.118 71.2335 271.539L108.405 255.106C117.034 251.29 126.488 258.467 125.132 267.805L118.925 310.563C117.57 319.9 106.466 324.093 99.2773 317.982L68.3131 291.657Z" fill="#98D553"/>
<path d="M49.6784 394.652C42.0886 390.103 41.8651 379.184 49.2624 374.328L83.2377 352.024C91.1252 346.846 101.627 352.377 101.821 361.81L102.705 405.008C102.898 414.441 92.6308 420.397 84.538 415.546L49.6784 394.652Z" fill="#98D553"/>
<ellipse cx="239.252" cy="320.165" rx="60.4223" ry="25.8643" transform="rotate(-20.4216 239.252 320.165)" fill="#388063"/>
<path d="M276.86 276.106C277.341 275.334 278.519 275.553 278.691 276.447L281.086 288.939C281.218 289.631 280.613 290.239 279.921 290.111L270.803 288.416C270.11 288.287 269.764 287.502 270.137 286.904L276.86 276.106Z" fill="white"/>
<path d="M305.857 304.144C306.737 304.378 306.872 305.569 306.068 305.994L294.824 311.942C294.201 312.271 293.443 311.871 293.363 311.171L292.314 301.956C292.234 301.256 292.883 300.696 293.564 300.877L305.857 304.144Z" fill="white"/>
<path d="M296.629 283.642C297.448 283.246 298.328 284.061 297.995 284.908L293.345 296.747C293.087 297.402 292.251 297.593 291.734 297.115L284.932 290.81C284.415 290.332 284.543 289.483 285.177 289.177L296.629 283.642Z" fill="white"/>
<path d="M256.562 130.798C283.223 158.578 338.631 162.491 406.992 145.111" stroke="black" stroke-width="6" stroke-linecap="round"/>
<circle cx="354.062" cy="110.29" r="4.5" fill="#388063"/>
<circle cx="375.062" cy="106.29" r="4.5" fill="#388063"/>
</svg>
