<svg width="417" height="508" viewBox="0 0 417 508" fill="none" xmlns="http://www.w3.org/2000/svg">
<g clip-path="url(#clip0_36_405)">
<rect x="51.4194" y="61.6504" width="342" height="183" rx="20" transform="rotate(-8.42396 51.4194 61.6504)" fill="#449071"/>
<path d="M411.5 174L407.5 145.5" stroke="black" stroke-width="6" stroke-linecap="round"/>
<path d="M392.105 162.377C392.105 162.418 392.169 162.705 392.376 163.222C392.998 164.774 395.697 164.583 396.311 164.523C396.986 164.457 397.511 163.601 397.903 162.683C398.186 162.018 398.192 161.413 398.083 160.882C398.03 160.621 397.744 160.456 397.398 160.354C397.052 160.252 396.595 160.238 396.179 160.328C395.763 160.418 395.402 160.613 395.176 160.922C394.71 161.558 394.785 162.454 394.84 163.357C395.041 166.672 398.647 170.272 400.202 171.389C401.908 172.615 404.191 168.555 404.775 168.578C405.073 168.59 405.328 168.897 405.459 168.728C405.925 168.128 405.169 165.097 404.367 160.813C403.25 154.837 402.641 153.096 402.213 152.139C402.035 151.741 401.69 151.656 397.557 152.823C393.425 153.991 385.451 156.449 372.706 158.014C359.961 159.579 342.686 160.176 330.709 160.364C318.731 160.552 312.575 160.312 309.166 160.123C305.757 159.935 305.281 159.805 304.928 159.63C304.575 159.455 304.358 159.24 303.962 158.258" stroke="black" stroke-width="10" stroke-linecap="round"/>
<path d="M303.962 158.258C303.941 158.258 301.544 158.237 297.76 158.177C296.023 158.15 294.379 157.414 288.422 154.629C283.767 152.453 275.784 148.749 271.557 146.759C266.419 144.339 265.29 143.382 264.328 142.615C264.241 142.546 264.72 143.296 265.773 145.296C266.827 147.296 268.532 150.709 270.695 154.503C272.857 158.298 275.425 162.37 276.914 164.682C280.125 169.672 284.641 172.472 285.505 172.833C285.729 172.927 285.562 172.226 284.121 169.561C280.075 162.08 277.386 157.451 277.746 157.928C278.11 158.41 279.848 158.782 284.692 160.073C288.029 160.962 292.742 163.607 295.001 164.902C297.26 166.198 296.818 166.39 296.425 166.494C293.247 167.335 288.51 168.366 287.975 168.683C287.723 168.831 287.648 169.139 287.718 169.357C288.625 172.199 293.975 174.95 295.547 175.659C296.329 176.012 297.09 176.025 300.718 176.08C304.068 176.131 310.482 176.103 314.376 176.178C318.27 176.253 319.45 176.4 325.473 176.448C331.496 176.496 342.325 176.441 354.265 175.536C366.205 174.63 378.926 172.877 385.637 171.935C392.669 170.949 393.293 170.679 393.857 170.314C394.135 170.133 394.322 169.86 394.451 169.584C395.103 168.195 393.033 166.322 391.532 165.219C390.726 164.627 388.439 164.374 383.795 164.021C380.877 163.799 376.793 163.923 369.178 164.687C361.563 165.45 350.534 166.959 340.233 167.886C329.933 168.812 320.694 169.11 313.744 169.05C306.793 168.989 302.411 168.561 299.653 168.258C296.895 167.954 295.895 167.789 294.488 167.616" stroke="black" stroke-width="10" stroke-linecap="round"/>
<path d="M301.42 161.286V165.84" stroke="black" stroke-width="10" stroke-linecap="round"/>
</g>
<ellipse cx="200.716" cy="52.6821" rx="49" ry="46" transform="rotate(-8.42396 200.716 52.6821)" fill="#449071"/>
<ellipse cx="204.062" cy="67.2903" rx="37.5" ry="36.5" fill="white"/>
<ellipse cx="320.557" cy="264.827" rx="60.4223" ry="25.8643" transform="rotate(-32.3787 320.557 264.827)" fill="#388063"/>
<path d="M348.221 213.933C348.531 213.078 349.73 213.048 350.082 213.887L355.014 225.612C355.287 226.261 354.821 226.982 354.117 226.999L344.845 227.231C344.141 227.248 343.64 226.552 343.88 225.89L348.221 213.933Z" fill="white"/>
<path d="M382.398 235.355C383.306 235.401 383.686 236.538 382.987 237.121L373.219 245.269C372.679 245.72 371.853 245.486 371.63 244.818L368.695 236.02C368.472 235.352 368.991 234.669 369.694 234.705L382.398 235.355Z" fill="white"/>
<path d="M369.122 217.209C369.842 216.652 370.871 217.267 370.721 218.165L368.624 230.71C368.508 231.405 367.729 231.765 367.125 231.404L359.164 226.646C358.56 226.284 358.508 225.428 359.065 224.997L369.122 217.209Z" fill="white"/>
<path d="M23.8156 136.153C15.7768 132.454 14.3692 121.624 21.1957 115.994L52.549 90.1338C59.8278 84.1304 70.8684 88.4883 72.0844 97.8447L77.6529 140.691C78.8689 150.048 69.3089 157.083 60.7375 153.139L23.8156 136.153Z" fill="#98D553"/>
<path d="M37.3774 213.222C29.3386 209.524 27.931 198.694 34.7574 193.063L66.1108 167.203C73.3895 161.2 84.4301 165.558 85.6461 174.914L91.2146 217.761C92.4306 227.117 82.8707 234.152 74.2992 230.209L37.3774 213.222Z" fill="#98D553"/>
<rect x="118.562" y="192.79" width="200" height="252" rx="9" fill="#449071"/>
<ellipse cx="216.062" cy="383.29" rx="130.5" ry="124.5" fill="#449071"/>
<ellipse cx="216.062" cy="61.7903" rx="15.5" ry="15" fill="black"/>
<path d="M68.3131 291.657C61.5714 285.926 63.1404 275.118 71.2335 271.539L108.405 255.106C117.034 251.29 126.488 258.467 125.132 267.805L118.925 310.563C117.57 319.9 106.466 324.093 99.2773 317.982L68.3131 291.657Z" fill="#98D553"/>
<path d="M49.6784 394.652C42.0886 390.103 41.8651 379.184 49.2624 374.328L83.2377 352.024C91.1252 346.846 101.627 352.377 101.821 361.81L102.705 405.008C102.898 414.441 92.6308 420.397 84.538 415.546L49.6784 394.652Z" fill="#98D553"/>
<ellipse cx="238.97" cy="317.427" rx="60.4223" ry="25.8643" transform="rotate(37.6311 238.97 317.427)" fill="#388063"/>
<path d="M296.255 326.025C297.165 326.024 297.603 327.14 296.935 327.759L287.602 336.401C287.085 336.88 286.249 336.688 285.992 336.033L282.605 327.399C282.348 326.743 282.831 326.034 283.535 326.034L296.255 326.025Z" fill="white"/>
<path d="M287.808 365.466C288.075 366.336 287.136 367.081 286.349 366.624L275.353 360.23C274.744 359.876 274.682 359.02 275.234 358.583L282.498 352.816C283.049 352.378 283.869 352.633 284.075 353.306L287.808 365.466Z" fill="white"/>
<path d="M300.322 346.787C301.091 347.273 300.865 348.45 299.97 348.616L287.464 350.935C286.771 351.063 286.166 350.454 286.299 349.763L288.049 340.655C288.182 339.964 288.97 339.622 289.565 339.998L300.322 346.787Z" fill="white"/>
<path d="M256.562 130.798C283.223 158.578 338.631 162.491 406.992 145.111" stroke="black" stroke-width="6" stroke-linecap="round"/>
<circle cx="354.062" cy="110.29" r="4.5" fill="#388063"/>
<circle cx="375.062" cy="106.29" r="4.5" fill="#388063"/>
<path d="M256.5 130.5C267.936 185.989 289 192.369 411.5 174.84" stroke="black" stroke-width="6" stroke-linecap="round"/>
<path d="M269 167C281.68 181.988 289.452 185.456 304 183.504" stroke="#F7AFCF" stroke-width="6" stroke-linecap="round"/>
<path d="M269 166.698C290.94 155.04 304.857 176.745 303.959 182.308" stroke="#F7AFCF" stroke-width="6" stroke-linecap="round"/>
<path d="M279.844 170.28C280.253 170.363 282.328 171.193 283.754 172.012C284.788 172.605 286.305 173.182 287.133 173.254C289.385 173.448 284.856 170.743 284.628 170.291C284.512 170.062 284.477 169.798 284.656 169.597C285.95 168.139 288.867 169.872 289.713 170.591C291.064 171.739 292.193 174.404 293.556 176.68C294.04 177.489 293.873 177.725 293.059 177.844C288.518 178.506 286.4 176.881 285.102 176.348C283.286 175.602 281.506 173.697 280.104 172.272C278.42 170.56 277.923 169.572 276.95 169.071C276.687 168.935 276.332 169.013 276.201 169.147C275.284 170.093 277.645 172.091 280.43 174.108C282.732 175.777 285.187 176.382 286.86 176.898C288.812 177.398 292.119 177.743 295.728 177.891C297.101 177.946 297.544 177.958 298 177.972" stroke="#F7AFCF" stroke-width="10" stroke-linecap="round"/>
<path d="M397.437 156.829C397.298 157.718 396.148 157.985 395.631 157.25L388.602 147.252C388.194 146.672 388.502 145.863 389.193 145.702L398.113 143.626C398.804 143.465 399.438 144.054 399.328 144.755L397.437 156.829Z" fill="white"/>
<path d="M366.181 162.8C365.976 163.675 364.809 163.856 364.349 163.084L358.088 152.587C357.725 151.978 358.093 151.195 358.794 151.087L367.845 149.684C368.545 149.576 369.133 150.211 368.971 150.901L366.181 162.8Z" fill="white"/>
<path d="M381.313 169.27C381.542 168.401 382.713 168.253 383.152 169.038L389.117 179.705C389.463 180.324 389.073 181.096 388.37 181.185L379.283 182.334C378.58 182.423 378.01 181.772 378.191 181.087L381.313 169.27Z" fill="white"/>
<path d="M355.218 171.973C355.477 171.112 356.653 171.005 357.064 171.805L362.655 182.673C362.979 183.303 362.562 184.062 361.856 184.126L352.735 184.958C352.029 185.023 351.482 184.352 351.687 183.674L355.218 171.973Z" fill="white"/>
<path d="M332.971 167.667C332.64 168.486 331.487 168.505 331.13 167.697L324.874 153.576C324.584 152.921 325.056 152.183 325.772 152.171L337.813 151.972C338.529 151.961 339.025 152.683 338.757 153.347L332.971 167.667Z" fill="white"/>
<defs>
<clipPath id="clip0_36_405">
<rect width="365.119" height="231.127" fill="white" transform="translate(51.4194 11.5486)"/>
</clipPath>
</defs>
</svg>
